<svg width="30" height="31" viewBox="0 0 30 31" fill="none" xmlns="http://www.w3.org/2000/svg">
<path d="M5.08751 15.1L5.13751 15.2C5.33751 15.5938 5.90626 15.5938 6.10626 15.2L6.15626 15.1C6.36251 14.6938 6.69376 14.3688 7.10001 14.1563L7.20001 14.1063C7.59376 13.9063 7.59376 13.3375 7.20001 13.1375L7.10001 13.0875C6.69376 12.8812 6.36876 12.55 6.15626 12.1437L6.10626 12.0437C5.90626 11.65 5.33751 11.65 5.13751 12.0437L5.08751 12.1437C4.88126 12.55 4.55001 12.875 4.14376 13.0875L4.04376 13.1375C3.65001 13.3375 3.65001 13.9063 4.04376 14.1063L4.14376 14.1563C4.55001 14.3625 4.87501 14.6938 5.08751 15.1Z" fill="white"/>
<path d="M6.16876 8.575L6.35626 8.66875C7.10001 9.05 7.70001 9.65 8.08126 10.3937L8.17501 10.5812C8.54376 11.3062 9.58126 11.3062 9.95001 10.5812L10.0438 10.3937C10.425 9.65 11.025 9.05 11.7688 8.66875L11.9563 8.575C12.6813 8.20625 12.6813 7.16875 11.9563 6.8L11.7688 6.70625C11.025 6.325 10.425 5.725 10.0438 4.98125L9.95001 4.79375C9.58126 4.06875 8.54376 4.06875 8.17501 4.79375L8.08126 4.98125C7.70001 5.725 7.10001 6.325 6.35626 6.70625L6.16876 6.8C5.44376 7.16875 5.44376 8.20625 6.16876 8.575Z" fill="white"/>
<path d="M23.8313 22.425L23.6438 22.3312C22.9 21.95 22.3 21.35 21.9188 20.6062L21.825 20.4188C21.4563 19.6938 20.4188 19.6938 20.05 20.4188L19.9563 20.6062C19.575 21.35 18.975 21.95 18.2313 22.3312L18.0438 22.425C17.3188 22.7937 17.3188 23.8312 18.0438 24.2L18.2313 24.2937C18.975 24.675 19.575 25.275 19.9563 26.0188L20.05 26.2063C20.4188 26.9313 21.4563 26.9313 21.825 26.2063L21.9188 26.0188C22.3 25.275 22.9 24.675 23.6438 24.2937L23.8313 24.2C24.5563 23.8312 24.5563 22.7937 23.8313 22.425Z" fill="white"/>
<path d="M24.9438 11.425L24.2438 10.5437L24.6438 9.45C25.025 8.4125 24.775 7.28125 23.9938 6.5C23.2125 5.71875 22.0813 5.46875 21.0438 5.85L19.95 6.25L19.0688 5.55C18.1938 4.85625 17.0313 4.7375 16.0375 5.25C15.0438 5.7625 14.4625 6.76875 14.5125 7.8875L14.5625 8.9625L13.6438 9.56875C12.7188 10.1813 12.25 11.2437 12.4188 12.3375C12.475 12.7125 12.6063 13.0562 12.7938 13.3625L4.86251 21.5625C3.78126 22.6813 3.79376 24.4875 4.89376 25.5875C5.45001 26.1437 6.18751 26.425 6.92501 26.425C7.66251 26.425 8.36876 26.1563 8.91876 25.625L17.1188 17.6938C17.425 17.8813 17.7688 18.0125 18.1438 18.0688C18.2938 18.0938 18.4375 18.1 18.5813 18.1C19.5125 18.1 20.3813 17.6375 20.9125 16.8375L21.5188 15.9188L22.5938 15.9688C23.7125 16.0313 24.7188 15.4375 25.2313 14.4437C25.7438 13.45 25.625 12.2875 24.9313 11.4125L24.9438 11.425ZM13.0313 15.825L14.2563 14.5562C14.3125 14.575 14.3688 14.6 14.425 14.6188L15.5563 14.9438L15.8813 16.075C15.9 16.1313 15.925 16.1875 15.9438 16.2438L14.0125 18.1125L13.0313 15.8313V15.825ZM12.5688 19.5L10.8563 21.1562L9.94376 19.0187L11.625 17.2813L12.575 19.5H12.5688ZM7.62501 24.2812C7.23751 24.6562 6.60626 24.65 6.22501 24.2687C5.84376 23.8875 5.83751 23.2625 6.21251 22.8688L8.51876 20.4812L9.40626 22.55L7.61876 24.275L7.62501 24.2812ZM23.575 13.6C23.5125 13.725 23.25 14.1312 22.7 14.1062L21.575 14.05C20.95 14.0187 20.3438 14.325 19.9938 14.85L19.3563 15.8125C19.05 16.275 18.575 16.2437 18.4375 16.2187C18.3 16.2 17.8375 16.0875 17.6813 15.5563L17.3438 14.3812C17.175 13.7812 16.7125 13.325 16.1188 13.1562L14.9438 12.8187C14.4125 12.6687 14.3 12.2062 14.2813 12.0625C14.2625 11.9187 14.225 11.45 14.6875 11.1437L15.65 10.5062C16.175 10.1625 16.4813 9.55625 16.45 8.925L16.3938 7.8C16.3688 7.24375 16.775 6.9875 16.9 6.925C16.9688 6.8875 17.1313 6.81875 17.3375 6.81875C17.5063 6.81875 17.7063 6.86875 17.9063 7.025L18.825 7.75625C19.3063 8.1375 19.9688 8.25 20.55 8.0375L21.6875 7.61875C22.2063 7.43125 22.5688 7.7375 22.6688 7.8375C22.7688 7.9375 23.075 8.3 22.8875 8.81875L22.4688 9.95625C22.2563 10.5375 22.3625 11.2 22.75 11.6812L23.4813 12.6C23.8313 13.0375 23.6438 13.4812 23.5813 13.6062L23.575 13.6Z" fill="white"/>
</svg>
