<svg width="69" height="82" viewBox="0 0 69 82" fill="none" xmlns="http://www.w3.org/2000/svg">
<g opacity="0.8">
<path fill-rule="evenodd" clip-rule="evenodd" d="M34.5 64.8333C21.0841 64.8333 10.2083 54.1627 10.2083 41C10.2083 27.8372 21.0841 17.1667 34.5 17.1667C47.9158 17.1667 58.7917 27.8372 58.7917 41C58.7917 54.1627 47.9158 64.8333 34.5 64.8333ZM34.5 60.5C45.4767 60.5 54.375 51.7696 54.375 41C54.375 30.2304 45.4767 21.5 34.5 21.5C23.5233 21.5 14.625 30.2304 14.625 41C14.625 51.7696 23.5233 60.5 34.5 60.5ZM35.1468 51.1987L38.2698 48.1346L30.998 41L38.2698 33.8654L35.1468 30.8013L24.7519 41L35.1468 51.1987Z" fill="white"/>
</g>
</svg>
