<svg width="53" height="52" viewBox="0 0 53 52" fill="none" xmlns="http://www.w3.org/2000/svg">
<path fill-rule="evenodd" clip-rule="evenodd" d="M26.5 49.8333C13.0841 49.8333 2.20833 39.1627 2.20833 26C2.20833 12.8372 13.0841 2.16666 26.5 2.16666C39.9158 2.16666 50.7917 12.8372 50.7917 26C50.7917 39.1627 39.9158 49.8333 26.5 49.8333ZM26.5 45.5C37.4767 45.5 46.375 36.7696 46.375 26C46.375 15.2304 37.4767 6.49999 26.5 6.49999C15.5233 6.49999 6.625 15.2304 6.625 26C6.625 36.7696 15.5233 45.5 26.5 45.5ZM27.1468 36.1987L30.2698 33.1346L22.998 26L30.2698 18.8654L27.1468 15.8013L16.7519 26L27.1468 36.1987Z" fill="white"/>
</svg>
