<svg width="22" height="22" viewBox="0 0 22 22" fill="none" xmlns="http://www.w3.org/2000/svg">
<path fill-rule="evenodd" clip-rule="evenodd" d="M0 11C0 17.0751 4.92487 22 11 22C17.0751 22 22 17.0751 22 11C22 4.92487 17.0751 0 11 0C4.92487 0 0 4.92487 0 11ZM20 11C20 15.9706 15.9706 20 11 20C6.02944 20 2 15.9706 2 11C2 6.02944 6.02944 2 11 2C15.9706 2 20 6.02944 20 11ZM10.2929 7.70711L11.7071 6.29289L16.4142 11L11.7071 15.7071L10.2929 14.2929L13.5858 11L10.2929 7.70711ZM7.70711 6.29289L6.29289 7.70711L9.58579 11L6.29289 14.2929L7.70711 15.7071L12.4142 11L7.70711 6.29289Z" fill="black"/>
</svg>
