<svg width="54" height="55" viewBox="0 0 54 55" fill="none" xmlns="http://www.w3.org/2000/svg">
<g clip-path="url(#clip0_5_243)">
<path fill-rule="evenodd" clip-rule="evenodd" d="M27.0001 54.3306C34.1609 54.3306 41.0285 51.486 46.0919 46.4225C51.1554 41.359 54.0001 34.4914 54.0001 27.3306C54.0001 20.1698 51.1554 13.3022 46.0919 8.23871C41.0285 3.17523 34.1609 0.330597 27.0001 0.330597C19.8392 0.330597 12.9717 3.17523 7.90818 8.23871C2.8447 13.3022 6.10352e-05 20.1698 6.10352e-05 27.3306C6.10352e-05 34.4914 2.8447 41.359 7.90818 46.4225C12.9717 51.486 19.8392 54.3306 27.0001 54.3306ZM25.4982 17.7726C24.9899 17.4335 24.3991 17.2387 23.7888 17.2091C23.1785 17.1794 22.5716 17.316 22.0329 17.6043C21.4941 17.8925 21.0437 18.3216 20.7297 18.8458C20.4158 19.37 20.25 19.9696 20.2501 20.5806V34.0806C20.25 34.6916 20.4158 35.2912 20.7297 35.8154C21.0437 36.3396 21.4941 36.7687 22.0329 37.0569C22.5716 37.3452 23.1785 37.4818 23.7888 37.4521C24.3991 37.4225 24.9899 37.2277 25.4982 36.8886L35.6232 30.1386C36.0854 29.8304 36.4644 29.4128 36.7265 28.923C36.9887 28.4331 37.1258 27.8862 37.1258 27.3306C37.1258 26.775 36.9887 26.2281 36.7265 25.7382C36.4644 25.2484 36.0854 24.8308 35.6232 24.5226L25.4982 17.7726Z" fill="white"/>
</g>
<defs>
<clipPath id="clip0_5_243">
<rect width="54" height="54" fill="white" transform="translate(0 0.330536)"/>
</clipPath>
</defs>
</svg>
