<svg width="32" height="33" viewBox="0 0 32 33" fill="none" xmlns="http://www.w3.org/2000/svg">
<path fill-rule="evenodd" clip-rule="evenodd" d="M16 32.4278C20.2435 32.4278 24.3132 30.742 27.3138 27.7415C30.3143 24.7409 32 20.6712 32 16.4278C32 12.1843 30.3143 8.11463 27.3138 5.11405C24.3132 2.11347 20.2435 0.427757 16 0.427757C11.7566 0.427757 7.68692 2.11347 4.68634 5.11405C1.68576 8.11463 4.95911e-05 12.1843 4.95911e-05 16.4278C4.95911e-05 20.6712 1.68576 24.7409 4.68634 27.7415C7.68692 30.742 11.7566 32.4278 16 32.4278ZM15.1101 10.7638C14.8088 10.5628 14.4587 10.4474 14.0971 10.4298C13.7354 10.4122 13.3758 10.4932 13.0565 10.664C12.7373 10.8348 12.4704 11.0891 12.2843 11.3997C12.0982 11.7104 12 12.0657 12 12.4278V20.4278C12 20.7898 12.0982 21.1452 12.2843 21.4558C12.4704 21.7664 12.7373 22.0207 13.0565 22.1915C13.3758 22.3623 13.7354 22.4433 14.0971 22.4257C14.4587 22.4081 14.8088 22.2927 15.1101 22.0918L21.1101 18.0918C21.384 17.9091 21.6086 17.6617 21.7639 17.3714C21.9192 17.0811 22.0005 16.757 22.0005 16.4278C22.0005 16.0985 21.9192 15.7744 21.7639 15.4841C21.6086 15.1938 21.384 14.9464 21.1101 14.7638L15.1101 10.7638Z" fill="#566A83"/>
</svg>
